<?xml version="1.0" standalone="no"?>
<!DOCTYPE svg PUBLIC "-//W3C//DTD SVG 20010904//EN"
 "http://www.w3.org/TR/2001/REC-SVG-20010904/DTD/svg10.dtd">
<svg version="1.0" xmlns="http://www.w3.org/2000/svg"
 width="512.000000pt" height="512.000000pt" viewBox="0 0 512.000000 512.000000"
 preserveAspectRatio="xMidYMid meet">
<metadata>
Created by potrace 1.14, written by Peter Selinger 2001-2017
</metadata>
<g transform="translate(0.000000,512.000000) scale(0.100000,-0.100000)"
fill="#000000" stroke="none">
<path d="M549 4336 c-113 -30 -219 -124 -264 -232 -20 -48 -20 -75 -23 -1530
-2 -1357 -1 -1484 15 -1530 34 -101 102 -183 193 -229 90 -46 21 -45 2090 -45
2162 0 2017 -4 2125 64 58 38 121 115 151 186 18 43 19 96 21 1525 l2 1480
-22 62 c-40 114 -112 189 -225 238 -46 20 -70 20 -2032 22 -1550 1 -1995 -1
-2031 -11z m967 -1081 c2 -101 -97 -215 -202 -232 l-37 -6 6 51 c10 83 70 164
152 203 56 26 80 22 81 -16z m1101 -67 c236 -77 307 -412 127 -592 -78 -78
-149 -99 -336 -101 -81 -1 -151 -4 -154 -8 -4 -4 -6 -87 -6 -186 l2 -180 -85
1 c-80 0 -85 2 -85 22 -1 30 -1 1005 -1 1039 l1 27 235 0 c215 0 240 -2 302
-22z m-1401 -212 c69 -25 85 -24 174 9 72 26 132 29 197 9 63 -19 105 -46 128
-80 13 -20 11 -25 -33 -70 -114 -119 -92 -310 45 -395 18 -12 33 -27 33 -34 0
-8 -18 -48 -39 -90 -71 -137 -161 -220 -228 -211 -15 2 -57 13 -92 25 -82 27
-112 26 -205 -4 -93 -30 -91 -30 -141 -4 -51 27 -93 75 -148 169 -51 86 -62
116 -86 220 -49 214 24 401 181 464 68 27 122 25 214 -8z m2101 -60 c103 -12
180 -62 219 -142 l28 -57 0 -296 0 -296 -77 -3 -77 -3 -1 38 c-1 21 0 52 1 68
l2 30 -41 -46 c-104 -119 -324 -127 -425 -15 -50 56 -69 153 -45 227 31 91
140 151 289 158 30 2 69 4 85 6 17 2 51 3 78 4 l47 1 0 53 c0 95 -61 151 -158
146 -78 -4 -133 -35 -152 -86 -8 -18 -18 -22 -75 -25 -36 -1 -70 -1 -75 0 -30
10 14 116 68 163 46 41 112 68 181 76 31 3 58 7 60 9 2 2 7 2 10 0 3 -2 29 -6
58 -10z m522 -105 c17 -53 62 -197 100 -320 l69 -224 35 109 c19 60 48 154 65
209 17 55 46 150 64 210 l34 110 87 3 86 3 -53 -153 c-118 -334 -219 -617
-248 -693 -66 -175 -139 -234 -295 -238 l-68 -2 -3 68 -3 67 48 0 c64 0 109
28 134 84 10 24 20 55 21 68 0 12 -26 97 -60 188 -33 91 -88 242 -122 335 -33
94 -64 179 -69 190 -4 11 -13 34 -18 52 l-11 32 52 3 c28 2 68 1 88 -1 l37 -3
30 -97z"/>
<path d="M2249 2941 c0 -72 0 -160 0 -196 0 -125 -17 -111 129 -109 142 2 199
18 247 70 72 78 58 253 -26 317 -48 35 -86 43 -226 46 l-123 3 -1 -131z"/>
<path d="M3226 2468 c-99 -9 -146 -32 -165 -82 -12 -33 -12 -41 2 -71 22 -46
68 -69 142 -69 118 0 190 67 197 184 l3 45 -50 0 c-28 0 -85 -3 -129 -7z"/>
</g>
</svg>
